<svg width="200" height="200" viewBox="0 0 200 200" fill="none" xmlns="http://www.w3.org/2000/svg">
<g clip-path="url(#clip0_1_2)">
<rect width="200" height="200" fill="#E6E6E6"/>
<mask id="path-1-outside-1_1_2" maskUnits="userSpaceOnUse" x="68" y="41" width="55" height="116" fill="black">
<rect fill="white" x="68" y="41" width="55" height="116"/>
<path d="M118.568 45.2V153H89.7698V73.998H73.7538L84.2258 45.2H118.568Z"/>
</mask>
<path d="M118.568 45.2V153H89.7698V73.998H73.7538L84.2258 45.2H118.568Z" fill="#3A86FF"/>
<path d="M118.568 45.2H122.068V41.7H118.568V45.2ZM118.568 153V156.5H122.068V153H118.568ZM89.7698 153H86.2698V156.5H89.7698V153ZM89.7698 73.998H93.2698V70.498H89.7698V73.998ZM73.7538 73.998L70.4646 72.8019L68.7569 77.498H73.7538V73.998ZM84.2258 45.2V41.7H81.7743L80.9366 44.0039L84.2258 45.2ZM118.568 45.2H115.068V153H118.568H122.068V45.2H118.568ZM118.568 153V149.5H89.7698V153V156.5H118.568V153ZM89.7698 153H93.2698V73.998H89.7698H86.2698V153H89.7698ZM89.7698 73.998V70.498H73.7538V73.998V77.498H89.7698V73.998ZM73.7538 73.998L77.0431 75.1941L87.5151 46.3961L84.2258 45.2L80.9366 44.0039L70.4646 72.8019L73.7538 73.998ZM84.2258 45.2V48.7H118.568V45.2V41.7H84.2258V45.2Z" fill="black" mask="url(#path-1-outside-1_1_2)"/>
</g>
<defs>
<clipPath id="clip0_1_2">
<rect width="200" height="200" fill="white"/>
</clipPath>
</defs>
</svg>
