<svg width="200" height="200" viewBox="0 0 200 200" fill="none" xmlns="http://www.w3.org/2000/svg">
<g clip-path="url(#clip0_2_5)">
<rect width="200" height="200" fill="#E6E6E6"/>
<mask id="path-1-outside-1_2_5" maskUnits="userSpaceOnUse" x="55" y="41" width="90" height="116" fill="black">
<rect fill="white" x="55" y="41" width="90" height="116"/>
<path d="M135.11 73.998L130.798 85.548L140.962 113.422L126.64 153H63.0376V124.202H106.004L109.854 113.576H76.4356V84.778H108.006L104.002 73.998H60.5736L71.0456 45.2H124.638L135.11 73.998Z"/>
</mask>
<path d="M135.11 73.998L130.798 85.548L140.962 113.422L126.64 153H63.0376V124.202H106.004L109.854 113.576H76.4356V84.778H108.006L104.002 73.998H60.5736L71.0456 45.2H124.638L135.11 73.998Z" fill="#FFD60A"/>
<path d="M135.11 73.998L138.389 75.2221L138.84 74.0139L138.399 72.8019L135.11 73.998ZM130.798 85.548L127.519 84.3239L127.067 85.5337L127.509 86.747L130.798 85.548ZM140.962 113.422L144.253 114.613L144.685 113.417L144.25 112.223L140.962 113.422ZM126.64 153V156.5H129.095L129.931 154.191L126.64 153ZM63.0376 153H59.5376V156.5H63.0376V153ZM63.0376 124.202V120.702H59.5376V124.202H63.0376ZM106.004 124.202V127.702H108.458L109.294 125.394L106.004 124.202ZM109.854 113.576L113.144 114.768L114.844 110.076H109.854V113.576ZM76.4356 113.576H72.9356V117.076H76.4356V113.576ZM76.4356 84.778V81.278H72.9356V84.778H76.4356ZM108.006 84.778V88.278H113.039L111.287 83.5593L108.006 84.778ZM104.002 73.998L107.283 72.7793L106.435 70.498H104.002V73.998ZM60.5736 73.998L57.2843 72.8019L55.5766 77.498H60.5736V73.998ZM71.0456 45.2V41.7H68.5941L67.7563 44.0039L71.0456 45.2ZM124.638 45.2L127.927 44.0039L127.089 41.7H124.638V45.2ZM135.11 73.998L131.831 72.7739L127.519 84.3239L130.798 85.548L134.077 86.7721L138.389 75.2221L135.11 73.998ZM130.798 85.548L127.509 86.747L137.673 114.621L140.962 113.422L144.25 112.223L134.086 84.349L130.798 85.548ZM140.962 113.422L137.67 112.231L123.348 151.809L126.64 153L129.931 154.191L144.253 114.613L140.962 113.422ZM126.64 153V149.5H63.0376V153V156.5H126.64V153ZM63.0376 153H66.5376V124.202H63.0376H59.5376V153H63.0376ZM63.0376 124.202V127.702H106.004V124.202V120.702H63.0376V124.202ZM106.004 124.202L109.294 125.394L113.144 114.768L109.854 113.576L106.563 112.384L102.713 123.01L106.004 124.202ZM109.854 113.576V110.076H76.4356V113.576V117.076H109.854V113.576ZM76.4356 113.576H79.9356V84.778H76.4356H72.9356V113.576H76.4356ZM76.4356 84.778V88.278H108.006V84.778V81.278H76.4356V84.778ZM108.006 84.778L111.287 83.5593L107.283 72.7793L104.002 73.998L100.721 75.2167L104.725 85.9967L108.006 84.778ZM104.002 73.998V70.498H60.5736V73.998V77.498H104.002V73.998ZM60.5736 73.998L63.8629 75.1941L74.3349 46.3961L71.0456 45.2L67.7563 44.0039L57.2843 72.8019L60.5736 73.998ZM71.0456 45.2V48.7H124.638V45.2V41.7H71.0456V45.2ZM124.638 45.2L121.348 46.3961L131.82 75.1941L135.11 73.998L138.399 72.8019L127.927 44.0039L124.638 45.2Z" fill="black" mask="url(#path-1-outside-1_2_5)"/>
</g>
<defs>
<clipPath id="clip0_2_5">
<rect width="200" height="200" fill="white"/>
</clipPath>
</defs>
</svg>
