<svg width="200" height="200" viewBox="0 0 200 200" fill="none" xmlns="http://www.w3.org/2000/svg">
<g clip-path="url(#clip0_2_11)">
<rect width="200" height="200" fill="#E6E6E6"/>
<mask id="path-1-outside-1_2_11" maskUnits="userSpaceOnUse" x="43" y="41" width="111" height="116" fill="black">
<rect fill="white" x="43" y="41" width="111" height="116"/>
<path d="M48.9394 73.998L59.4114 45.2H139.799V73.998H93.7534V84.778H139.799L150.271 113.422L135.949 153H64.9554V124.202H115.313L119.163 113.576H64.9554V73.998H48.9394Z"/>
</mask>
<path d="M48.9394 73.998L59.4114 45.2H139.799V73.998H93.7534V84.778H139.799L150.271 113.422L135.949 153H64.9554V124.202H115.313L119.163 113.576H64.9554V73.998H48.9394Z" fill="#9B5DE5"/>
<path d="M48.9394 73.998L45.6501 72.8019L43.9424 77.498H48.9394V73.998ZM59.4114 45.2V41.7H56.9599L56.1221 44.0039L59.4114 45.2ZM139.799 45.2H143.299V41.7H139.799V45.2ZM139.799 73.998V77.498H143.299V73.998H139.799ZM93.7534 73.998V70.498H90.2534V73.998H93.7534ZM93.7534 84.778H90.2534V88.278H93.7534V84.778ZM139.799 84.778L143.087 83.5762L142.246 81.278H139.799V84.778ZM150.271 113.422L153.563 114.613L153.996 113.416L153.559 112.22L150.271 113.422ZM135.949 153V156.5H138.405L139.241 154.191L135.949 153ZM64.9554 153H61.4554V156.5H64.9554V153ZM64.9554 124.202V120.702H61.4554V124.202H64.9554ZM115.313 124.202V127.702H117.768L118.604 125.394L115.313 124.202ZM119.163 113.576L122.454 114.768L124.154 110.076H119.163V113.576ZM64.9554 113.576H61.4554V117.076H64.9554V113.576ZM64.9554 73.998H68.4554V70.498H64.9554V73.998ZM48.9394 73.998L52.2287 75.1941L62.7007 46.3961L59.4114 45.2L56.1221 44.0039L45.6501 72.8019L48.9394 73.998ZM59.4114 45.2V48.7H139.799V45.2V41.7H59.4114V45.2ZM139.799 45.2H136.299V73.998H139.799H143.299V45.2H139.799ZM139.799 73.998V70.498H93.7534V73.998V77.498H139.799V73.998ZM93.7534 73.998H90.2534V84.778H93.7534H97.2534V73.998H93.7534ZM93.7534 84.778V88.278H139.799V84.778V81.278H93.7534V84.778ZM139.799 84.778L136.512 85.9798L146.984 114.624L150.271 113.422L153.559 112.22L143.087 83.5762L139.799 84.778ZM150.271 113.422L146.98 112.231L132.658 151.809L135.949 153L139.241 154.191L153.563 114.613L150.271 113.422ZM135.949 153V149.5H64.9554V153V156.5H135.949V153ZM64.9554 153H68.4554V124.202H64.9554H61.4554V153H64.9554ZM64.9554 124.202V127.702H115.313V124.202V120.702H64.9554V124.202ZM115.313 124.202L118.604 125.394L122.454 114.768L119.163 113.576L115.873 112.384L112.023 123.01L115.313 124.202ZM119.163 113.576V110.076H64.9554V113.576V117.076H119.163V113.576ZM64.9554 113.576H68.4554V73.998H64.9554H61.4554V113.576H64.9554ZM64.9554 73.998V70.498H48.9394V73.998V77.498H64.9554V73.998Z" fill="black" mask="url(#path-1-outside-1_2_11)"/>
</g>
<defs>
<clipPath id="clip0_2_11">
<rect width="200" height="200" fill="white"/>
</clipPath>
</defs>
</svg>
