<svg xmlns="http://www.w3.org/2000/svg" width="200" height="200" viewBox="0 0 200 200" fill="none">
<g clip-path="url(#clip0_2_2)" class="layer-0" data-layer="layer-0">
<rect width="200" height="200" fill="#E6E6E6" class="layer-1" data-layer="layer-1"/>
<mask id="path-1-outside-1_2_2" maskUnits="userSpaceOnUse" x="47" y="41" width="105" height="116" fill="black">
<rect fill="white" x="47" y="41" width="105" height="116" class="layer-3" data-layer="layer-3"/>
<path d="M133.428 45.2L147.904 84.778L137.432 113.576H87.0736L83.2236 124.202H137.432V153H62.5876L52.1156 124.202L66.4376 84.778H116.796L112.946 74.152H52.1156L62.5876 45.2H133.428Z" class="layer-4" data-layer="layer-4"/>
</mask>
<path d="M133.428 45.2L147.904 84.778L137.432 113.576H87.0736L83.2236 124.202H137.432V153H62.5876L52.1156 124.202L66.4376 84.778H116.796L112.946 74.152H52.1156L62.5876 45.2H133.428Z" fill="#2ECC71" class="layer-5" data-layer="layer-5"/>
<path d="M133.428 45.2L136.715 43.9977L135.874 41.7H133.428V45.2ZM147.904 84.778L151.193 85.9741L151.629 84.7745L151.191 83.5757L147.904 84.778ZM137.432 113.576V117.076H139.883L140.721 114.772L137.432 113.576ZM87.0736 113.576V110.076H84.6191L83.783 112.384L87.0736 113.576ZM83.2236 124.202L79.933 123.01L78.2329 127.702H83.2236V124.202ZM137.432 124.202H140.932V120.702H137.432V124.202ZM137.432 153V156.5H140.932V153H137.432ZM62.5876 153L59.2983 154.196L60.1361 156.5H62.5876V153ZM52.1156 124.202L48.826 123.007L48.3916 124.203L48.8263 125.398L52.1156 124.202ZM66.4376 84.778V81.278H63.9853L63.148 83.5829L66.4376 84.778ZM116.796 84.778V88.278H121.786L120.086 83.5857L116.796 84.778ZM112.946 74.152L116.236 72.9597L115.4 70.652H112.946V74.152ZM52.1156 74.152L48.8243 72.9615L47.1278 77.652H52.1156V74.152ZM62.5876 45.2V41.7H60.1317L59.2963 44.0095L62.5876 45.2ZM133.428 45.2L130.141 46.4023L144.617 85.9803L147.904 84.778L151.191 83.5757L136.715 43.9977L133.428 45.2ZM147.904 84.778L144.614 83.5819L134.142 112.38L137.432 113.576L140.721 114.772L151.193 85.9741L147.904 84.778ZM137.432 113.576V110.076H87.0736V113.576V117.076H137.432V113.576ZM87.0736 113.576L83.783 112.384L79.933 123.01L83.2236 124.202L86.5143 125.394L90.3643 114.768L87.0736 113.576ZM83.2236 124.202V127.702H137.432V124.202V120.702H83.2236V124.202ZM137.432 124.202H133.932V153H137.432H140.932V124.202H137.432ZM137.432 153V149.5H62.5876V153V156.5H137.432V153ZM62.5876 153L65.8769 151.804L55.4049 123.006L52.1156 124.202L48.8263 125.398L59.2983 154.196L62.5876 153ZM52.1156 124.202L55.4053 125.397L69.7273 85.9731L66.4376 84.778L63.148 83.5829L48.826 123.007L52.1156 124.202ZM66.4376 84.778V88.278H116.796V84.778V81.278H66.4376V84.778ZM116.796 84.778L120.086 83.5857L116.236 72.9597L112.946 74.152L109.655 75.3443L113.505 85.9703L116.796 84.778ZM112.946 74.152V70.652H52.1156V74.152V77.652H112.946V74.152ZM52.1156 74.152L55.4069 75.3425L65.8789 46.3905L62.5876 45.2L59.2963 44.0095L48.8243 72.9615L52.1156 74.152ZM62.5876 45.2V48.7H133.428V45.2V41.7H62.5876V45.2Z" fill="black" mask="url(#path-1-outside-1_2_2)" class="layer-6" data-layer="layer-6"/>
</g>
<defs>
<clipPath id="clip0_2_2">
<rect width="200" height="200" fill="white" class="layer-9" data-layer="layer-9"/>
</clipPath>
</defs>

      <style>
        
              .layer-5 {
                animation: layer-5 ease-in-out 1s infinite;
                
                transform-box: fill-box;
              }
            

              .layer-6 {
                animation: layer-6 ease-in-out 1s infinite;
                
                transform-box: fill-box;
              }
            
        @keyframes layer-5 {
  50% { transform: translateY(6px); }
}
@keyframes layer-6 {
  60% { transform: translateY(6px); }
}

      </style>
    </svg>