<svg xmlns="http://www.w3.org/2000/svg" width="200" height="200" viewBox="0 0 200 200" fill="none">
<g clip-path="url(#clip0_2_8)" class="layer-0" data-layer="layer-0">
<rect width="200" height="200" fill="#E6E6E6" class="layer-1" data-layer="layer-1"/>
<mask id="path-1-outside-1_2_8" maskUnits="userSpaceOnUse" x="51" y="41" width="98" height="116" fill="black">
<rect fill="white" x="51" y="41" width="98" height="116" class="layer-3" data-layer="layer-3"/>
<path d="M55.2558 109.572L78.6638 45.2H135.798V109.572H144.73V138.37H135.798V153H107V138.37H65.4198V137.754L55.2558 109.572ZM86.3638 109.572H107V73.998H99.2998L86.3638 109.572Z" class="layer-4" data-layer="layer-4"/>
</mask>
<path d="M55.2558 109.572L78.6638 45.2H135.798V109.572H144.73V138.37H135.798V153H107V138.37H65.4198V137.754L55.2558 109.572ZM86.3638 109.572H107V73.998H99.2998L86.3638 109.572Z" fill="#FF6B6B" class="layer-5" data-layer="layer-5"/>
<path d="M55.2558 109.572L51.9665 108.376L51.5333 109.567L51.9634 110.759L55.2558 109.572ZM78.6638 45.2V41.7H76.2123L75.3745 44.0039L78.6638 45.2ZM135.798 45.2H139.298V41.7H135.798V45.2ZM135.798 109.572H132.298V113.072H135.798V109.572ZM144.73 109.572H148.23V106.072H144.73V109.572ZM144.73 138.37V141.87H148.23V138.37H144.73ZM135.798 138.37V134.87H132.298V138.37H135.798ZM135.798 153V156.5H139.298V153H135.798ZM107 153H103.5V156.5H107V153ZM107 138.37H110.5V134.87H107V138.37ZM65.4198 138.37H61.9198V141.87H65.4198V138.37ZM65.4198 137.754H68.9198V137.142L68.7122 136.567L65.4198 137.754ZM86.3638 109.572L83.0745 108.376L81.3668 113.072H86.3638V109.572ZM107 109.572V113.072H110.5V109.572H107ZM107 73.998H110.5V70.498H107V73.998ZM99.2998 73.998V70.498H96.8483L96.0105 72.8019L99.2998 73.998ZM55.2558 109.572L58.5451 110.768L81.9531 46.3961L78.6638 45.2L75.3745 44.0039L51.9665 108.376L55.2558 109.572ZM78.6638 45.2V48.7H135.798V45.2V41.7H78.6638V45.2ZM135.798 45.2H132.298V109.572H135.798H139.298V45.2H135.798ZM135.798 109.572V113.072H144.73V109.572V106.072H135.798V109.572ZM144.73 109.572H141.23V138.37H144.73H148.23V109.572H144.73ZM144.73 138.37V134.87H135.798V138.37V141.87H144.73V138.37ZM135.798 138.37H132.298V153H135.798H139.298V138.37H135.798ZM135.798 153V149.5H107V153V156.5H135.798V153ZM107 153H110.5V138.37H107H103.5V153H107ZM107 138.37V134.87H65.4198V138.37V141.87H107V138.37ZM65.4198 138.37H68.9198V137.754H65.4198H61.9198V138.37H65.4198ZM65.4198 137.754L68.7122 136.567L58.5482 108.385L55.2558 109.572L51.9634 110.759L62.1274 138.941L65.4198 137.754ZM86.3638 109.572V113.072H107V109.572V106.072H86.3638V109.572ZM107 109.572H110.5V73.998H107H103.5V109.572H107ZM107 73.998V70.498H99.2998V73.998V77.498H107V73.998ZM99.2998 73.998L96.0105 72.8019L83.0745 108.376L86.3638 109.572L89.6531 110.768L102.589 75.1941L99.2998 73.998Z" fill="black" mask="url(#path-1-outside-1_2_8)" class="layer-6" data-layer="layer-6"/>
</g>
<defs>
<clipPath id="clip0_2_8">
<rect width="200" height="200" fill="white" class="layer-9" data-layer="layer-9"/>
</clipPath>
</defs>

      <style>
        
              .layer-5 {
                animation: layer-5 ease-in-out 1s infinite;
                
                transform-box: fill-box;
              }
            

              .layer-6 {
                animation: layer-6 ease-in-out 1s infinite;
                
                transform-box: fill-box;
              }
            
        @keyframes layer-5 {
  80% { transform: translateY(6px); }
}
@keyframes layer-6 {
  80% { transform: translateY(6px); }
}

      </style>
    </svg>